<?xml version="1.0" encoding="utf-8"?>
<!-- Generator: Adobe Illustrator 25.2.0, SVG Export Plug-In . SVG Version: 6.00 Build 0)  -->
<svg version="1.1" id="Livello_1" xmlns="http://www.w3.org/2000/svg" xmlns:xlink="http://www.w3.org/1999/xlink" x="0px" y="0px"
	 viewBox="0 0 4602.9 641" style="enable-background:new 0 0 4602.9 641;" xml:space="preserve">
<style type="text/css">
	.st0{fill:#FFFFFF;}
	.st1{enable-background:new    ;}
</style>
<g id="Livello_2_1_">
	<g id="Livello_1-2">
		<path class="st0" d="M362.5,359.1c0-16.3-9.4-28.2-26.8-31.8c-7.9-1.7-16.2-1.5-24.3-1.8c-7.9-0.3-15.9-0.1-24-0.1v69.2
			c16.2-0.8,32.3-0.4,47.9-2.8C352.4,389.2,362.5,375.5,362.5,359.1z"/>
		<path class="st0" d="M306.6,0C137.3,0,0,137.3,0,306.6s137.3,306.6,306.6,306.6s306.6-137.3,306.6-306.6S475.9,0,306.6,0z
			 M267.1,473.5c-3.3,0.1-4.4,0-4.4,0s-0.1-21.8,0.2-30.3c0.1-3.9-1.2-5.1-5.1-5.1c-21.5,0.2-43,0-64.5,0.2c-4.3,0-5.7,0.1-5.7,0.1
			s0.3-26.6,0-37.1c-0.1-1.8-0.1-3.7,0-5.5c0,0,17.2,0.1,22.8,0.1c11.9-0.1,16.9-7.5,16.9-20.4c0-45.7,0.1-92.1,0.1-138.6
			c0-12.4-5.5-19.3-17.4-19.4c-3.7,0-11.3,0-16.7,0H192c-0.1,0-0.2,0-0.4,0h-4.1c0,0,0-1.1,0.1-4.4c0.1-11.2,0.2-22.3,0-33.5
			c-0.1-4,0-4.6,0-4.6s47.4,0,68.6,0c6.7,0,6.6-0.1,6.6-0.1l-0.1-35.1c0,0,1.5-0.1,5.4,0c7.3,0.2,14.6,0.2,21.9,0
			c3.4-0.1,4.6-0.1,4.6-0.1l-0.2,35l18.8,0.1l0,0v-13.3c0-5.7-0.1-21.8-0.1-21.8s0.9,0,4.4,0.1c7.7,0.2,27.3-0.1,27.3-0.1l-0.1,35.1
			c0,0,0.7,1.4,4.8,1.9c14.6,1.8,28.7,5.8,41.1,14.2c30.9,21,32.8,63.7,3.9,89c-8.5,7.5-18.3,12.5-30.1,16.4c5.3,1.3,9.5,2,13.6,3.3
			c21.9,6.8,38,19.9,44.7,42.5c9.6,32.2-6.5,68.5-36.6,83.8c-11.4,5.9-23.8,9.6-36.6,11c-1.7,0.1-3.4,0.4-5,0.9l0.1,35.7h-31.7
			l-0.1-35.3l-18.5,0.3v35c0,0-0.8,0-3.8,0C282.9,473.3,275,473.3,267.1,473.5z M490.5,489.5c-48.4,48.7-114.3,76-182.9,75.8
			c-5,0-10.1-0.2-15.1-0.4l2.2-38.9c4.3,0.2,8.6,0.4,12.9,0.4c121.3,0,219.7-98.4,219.7-219.7S429,86.9,307.6,86.9
			c-4.3,0-8.6,0.1-12.8,0.4l-2.2-38.9c5-0.3,10-0.4,15.1-0.4c142.9,0,258.7,115.8,258.7,258.7C566.3,375.2,539.1,441,490.5,489.5z"
			/>
		<path class="st0" d="M318.6,280.3c5.6-0.5,11.1-1.9,16.3-4.1c11.4-4.8,17.8-16.6,17-29.6c-0.7-12.4-6.5-20.1-18.8-24.1
			c-14.9-4.8-30.2-2.8-45.7-3.2v61c0.7,0.2,1.5,0.4,2.2,0.5C299.3,280.6,309,281,318.6,280.3z"/>
		<g class="st1">
			<path class="st0" d="M856.9,212.3c18.1,0,33.7,3.2,46.9,9.6c13.2,6.4,24.1,15.1,32.8,26c8.7,10.9,15.1,23.8,19.2,38.5
				c4.1,14.7,6.2,30.5,6.2,47.5c0,26-4.8,50.6-14.4,73.8c-9.6,23.2-22.7,43.4-39.3,60.5c-16.6,17.2-36.2,30.7-58.8,40.7
				s-47.1,15-73.5,15c-3.4,0-9.3-0.1-17.8-0.3s-18.2-1-29.1-2.5c-10.9-1.5-22.5-3.8-34.8-6.8s-23.9-7.2-34.8-12.4l97.8-411.2
				L845,77.1L810,223c7.5-3.4,15.1-6,22.6-7.9C840.2,213.2,848.3,212.3,856.9,212.3z M783.4,454.4c13.2,0,25.6-3.2,37.3-9.6
				s21.8-15,30.3-25.7s15.2-22.9,20.1-36.5c4.9-13.6,7.4-27.7,7.4-42.4c0-18.1-3-32.2-9-42.4c-6-10.2-17.2-15.3-33.4-15.3
				c-5.3,0-12.2,0.9-20.6,2.8c-8.5,1.9-16.1,5.9-22.9,11.9l-37.3,155c2.3,0.4,4.2,0.8,5.9,1.1c1.7,0.4,3.5,0.7,5.4,0.8
				c1.9,0.2,4.1,0.3,6.8,0.3C775.9,454.4,779.3,454.4,783.4,454.4z"/>
			<path class="st0" d="M1046.4,516h-83.7l70.7-297.5h84.3L1046.4,516z M1087.1,182.3c-11.7,0-22.3-3.5-31.7-10.5
				c-9.4-7-14.1-17.6-14.1-32c0-7.9,1.6-15.4,4.8-22.3c3.2-7,7.4-13,12.7-18.1c5.3-5.1,11.4-9.1,18.4-12.2c7-3,14.4-4.5,22.3-4.5
				c11.7,0,22.2,3.5,31.7,10.5c9.4,7,14.1,17.6,14.1,32c0,7.9-1.6,15.4-4.8,22.3c-3.2,7-7.4,13-12.7,18.1
				c-5.3,5.1-11.4,9.1-18.4,12.2C1102.5,180.8,1095,182.3,1087.1,182.3z"/>
		</g>
		<g class="st1">
			<path class="st0" d="M1180.4,144.4l87.7-13.6l-21.5,87.7h93.9l-17,69h-93.3l-24.9,104.1c-2.3,8.7-3.7,16.8-4.2,24.3
				c-0.6,7.5,0.4,14.1,2.8,19.5c2.4,5.5,6.7,9.7,12.7,12.7s14.3,4.5,24.9,4.5c9,0,17.8-0.8,26.3-2.5s17.1-4,25.7-7.1l6.2,64.5
				c-11.3,4.2-23.6,7.7-36.8,10.7c-13.2,3-28.8,4.5-46.9,4.5c-26,0-46.2-3.9-60.5-11.6c-14.3-7.7-24.5-18.3-30.5-31.7
				c-6-13.4-8.7-28.7-7.9-46.1c0.8-17.3,3.4-35.6,7.9-54.9L1180.4,144.4z"/>
		</g>
		<g class="st1">
			<path class="st0" d="M1320.7,397.2c0-25.6,4.1-49.8,12.4-72.4s20.2-42.4,35.6-59.4c15.5-17,34.2-30.3,56.3-40.2
				c22.1-9.8,46.7-14.7,73.8-14.7c17,0,32.1,1.6,45.5,4.8s25.5,7.4,36.5,12.7l-28.8,65.6c-7.5-3-15.4-5.7-23.5-8.2
				c-8.1-2.4-18-3.7-29.7-3.7c-28.3,0-50.5,9.5-66.7,28.6c-16.2,19-24.3,45-24.3,77.8c0,19.2,4.1,34.8,12.4,46.7
				c8.3,11.9,23.6,17.8,45.8,17.8c10.9,0,21.5-1.1,31.7-3.4s19.2-5.1,27.1-8.5l6.2,67.3c-10.6,4.2-22.2,7.8-34.8,11
				c-12.6,3.2-28,4.8-46.1,4.8c-23.4,0-43.2-3.4-59.4-10.2c-16.2-6.8-29.6-15.9-40.2-27.4s-18.2-25-22.9-40.4
				C1323,430.4,1320.7,414.2,1320.7,397.2z"/>
		</g>
		<g class="st1">
			<path class="st0" d="M1673.1,523.9c-20,0-37.3-3-52-9s-26.9-14.5-36.5-25.5c-9.6-10.9-16.9-23.8-21.8-38.7
				c-4.9-14.9-7.4-31.4-7.4-49.5c0-22.6,3.7-45.2,11-67.9s18.2-43,32.5-61.1s31.9-32.9,52.6-44.4s44.5-17.2,71.3-17.2
				c19.6,0,36.9,3,51.8,9s27.1,14.5,36.8,25.5c9.6,10.9,16.9,23.9,21.8,38.7c4.9,14.9,7.4,31.4,7.4,49.5c0,22.6-3.6,45.2-10.7,67.9
				c-7.2,22.6-17.7,43-31.7,61.1s-31.4,32.9-52.3,44.4C1724.8,518.2,1700.6,523.9,1673.1,523.9z M1714.9,281.8
				c-12.4,0-23.4,3.6-32.8,10.7c-9.4,7.2-17.3,16.2-23.8,27.1c-6.4,10.9-11.2,22.9-14.4,35.9c-3.2,13-4.8,25.4-4.8,37
				c0,19.2,3,34,9,44.4s17,15.6,32.8,15.6c12.4,0,23.4-3.6,32.8-10.7c9.4-7.2,17.3-16.2,23.8-27.1c6.4-10.9,11.2-22.9,14.4-35.9
				c3.2-13,4.8-25.4,4.8-37c0-19.2-3-34-9-44.4C1741.7,287,1730.7,281.8,1714.9,281.8z"/>
			<path class="st0" d="M1924.7,516H1841l70.7-297.5h84.3L1924.7,516z M1965.5,182.3c-11.7,0-22.3-3.5-31.7-10.5
				c-9.4-7-14.1-17.6-14.1-32c0-7.9,1.6-15.4,4.8-22.3c3.2-7,7.4-13,12.7-18.1c5.3-5.1,11.4-9.1,18.4-12.2c7-3,14.4-4.5,22.3-4.5
				c11.7,0,22.2,3.5,31.7,10.5c9.4,7,14.1,17.6,14.1,32c0,7.9-1.6,15.4-4.8,22.3c-3.2,7-7.5,13-12.7,18.1
				c-5.3,5.1-11.4,9.1-18.4,12.2C1980.8,180.8,1973.4,182.3,1965.5,182.3z"/>
			<path class="st0" d="M2047.5,232.1c6.4-1.9,13.5-4,21.2-6.5c7.7-2.4,16.4-4.7,26-6.8s20.4-3.8,32.2-5.1c11.9-1.3,25.4-2,40.4-2
				c44.5,0,75,12.8,91.6,38.5c16.6,25.6,19.4,60.7,8.5,105.2L2229,516h-84.3l37.3-157.2c2.3-9.8,4-19.3,5.4-28.6
				c1.3-9.2,1.2-17.3-0.3-24.3s-5-12.6-10.5-17c-5.5-4.3-13.9-6.5-25.2-6.5c-10.9,0-22.1,1.1-33.4,3.4L2063.3,516H1979L2047.5,232.1
				z"/>
		</g>
		<g class="st1">
			<path class="st0" d="M2451.1,441.3l-45.5,82.6h-49.2c34.6-62.5,68.4-120,101.4-172.6c32.9-52.6,65.5-102.2,97.7-148.9h44.1
				c4.6,23.2,8.9,46.6,12.8,70.3c3.9,23.7,7.7,48.5,11.4,74.5s7.3,53.5,10.7,82.6s7,60.5,10.7,94.2h-45.5c-1.6-13.9-2.9-27.9-4.2-42
				c-1.2-14.1-2.6-27.6-4.2-40.6L2451.1,441.3L2451.1,441.3z M2587.1,405.1c-2.5-25.1-5.3-49.9-8.6-74.7c-3.2-24.7-7-50.3-11.4-76.5
				c-10.8,15.8-24.3,36.1-40.4,61c-16.1,24.9-34.3,55-54.7,90.2L2587.1,405.1L2587.1,405.1z"/>
			<path class="st0" d="M2706.8,523.9h-43.1l55.7-232c14.2-4.3,29.6-7.8,46.2-10.4c16.5-2.6,31.3-3.9,44.3-3.9
				c13.9,0,25.9,1.9,36,5.8c10,3.9,18.2,9.1,24.4,15.8c6.2,6.7,10.7,14.7,13.7,24.1c2.9,9.4,4.4,19.7,4.4,30.9
				c0,7.1-0.6,14.6-1.9,22.5c-1.2,7.9-2.8,15.9-4.6,23.9L2852,523.9h-43.1l27.4-114.1c2.2-8.7,4.2-17.5,6.3-26.4c2-9,3-17.5,3-25.5
				c0-12.4-3.4-22.7-10.2-30.9c-6.8-8.2-19.5-12.3-38-12.3c-7.7,0-15.3,0.5-22.7,1.4s-13.6,2.2-18.6,3.7L2706.8,523.9z"/>
			<path class="st0" d="M2993,529.9c-25.4,0-45.2-7.5-59.6-22.5c-14.4-15-21.6-35.6-21.6-61.9c0-17.9,2.6-36.8,7.7-56.6
				c5.1-19.8,13.2-38,24.4-54.7c11.1-16.7,25.5-30.5,43.1-41.3s39-16.2,64-16.2c25.4,0,45.2,7.5,59.6,22.5
				c14.4,15,21.6,35.7,21.6,61.9c0,17.9-2.6,36.8-7.7,56.6c-5.1,19.8-13.2,38-24.4,54.7c-11.1,16.7-25.5,30.5-43.1,41.3
				S3018.1,529.9,2993,529.9z M3000.4,493.3c13.9,0,26.4-4,37.3-12.1c11-8,20.3-18.3,27.8-30.9c7.6-12.5,13.4-26.4,17.4-41.5
				c4-15.2,6-29.8,6-44.1c0-15.8-3.4-28.3-10.2-37.6c-6.8-9.3-18.6-13.9-35.3-13.9c-13.9,0-26.4,4-37.3,12.1
				c-11,8-20.3,18.3-27.8,30.9c-7.6,12.5-13.4,26.4-17.4,41.5c-4,15.2-6,29.9-6,44.1c0,15.8,3.4,28.3,10.2,37.6
				C2972,488.7,2983.7,493.3,3000.4,493.3z"/>
		</g>
		<g class="st1">
			<path class="st0" d="M3182.8,523.9h-43.1l55.7-232c14.2-4.3,29.6-7.8,46.2-10.4c16.5-2.6,31.3-3.9,44.3-3.9
				c13.9,0,25.9,1.9,36,5.8c10,3.9,18.2,9.1,24.4,15.8c6.2,6.7,10.7,14.7,13.7,24.1c2.9,9.4,4.4,19.7,4.4,30.9
				c0,7.1-0.6,14.6-1.9,22.5c-1.2,7.9-2.8,15.9-4.6,23.9L3328,523.9h-43.1l27.4-114.1c2.2-8.7,4.2-17.5,6.3-26.4c2-9,3-17.5,3-25.5
				c0-12.4-3.4-22.7-10.2-30.9c-6.8-8.2-19.5-12.3-38-12.3c-7.7,0-15.3,0.5-22.7,1.4s-13.6,2.2-18.6,3.7L3182.8,523.9z"/>
		</g>
		<g class="st1">
			<path class="st0" d="M3468.1,484.9c11.8-18.6,22.4-37.8,32-57.8c9.6-19.9,18-39,25.3-57.3c7.3-18.2,13.4-35,18.3-50.3
				c4.9-15.3,8.5-27.6,10.7-36.9h45c-3.4,11.8-8.2,26.4-14.4,43.8c-6.2,17.5-13.7,36.3-22.5,56.6c-8.8,20.3-18.7,41-29.7,62.2
				s-23,41.5-36,61c-9.9,14.5-19.8,28.2-29.7,41.1c-9.9,12.8-20.5,24-31.8,33.4s-23.7,16.9-37.3,22.3c-13.6,5.4-28.9,8.1-45.9,8.1
				c-8.7,0-16.7-1.1-24.1-3.2c-7.4-2.2-12.8-4.5-16.2-7l14.8-35.3c3.1,2.5,7.3,4.6,12.5,6.3c5.3,1.7,11.1,2.6,17.6,2.6
				c17.9,0,33.2-4.3,45.7-13s24.4-20.1,35.5-34.3c-11.4-37.4-20.8-76.9-28.1-118.3s-11.7-83.5-13.2-126.2h44.1
				c0.3,13.9,1.1,29.2,2.3,45.7s3,33.7,5.3,51.5s5.1,35.7,8.4,53.6C3460,451.4,3463.8,468.5,3468.1,484.9z"/>
			<path class="st0" d="M3855.5,277.6c13.6,0,25.1,2.1,34.6,6.3c9.4,4.2,17,9.8,22.7,16.9s9.8,15.4,12.3,24.8s3.7,19.4,3.7,29.9
				c0,6.8-0.5,14.2-1.6,22c-1.1,7.9-2.6,15.5-4.4,23l-29.7,123.4H3850l27.4-114.1c1.5-7.1,3.3-15.1,5.3-23.9s3-17.5,3-26.2
				c0-5.9-0.7-11.6-2.1-17.2c-1.4-5.6-3.7-10.4-7-14.4c-3.2-4-7.8-7.3-13.7-9.7c-5.9-2.5-13.1-3.7-21.8-3.7
				c-9.9,0-19.5,1.9-28.8,5.8s-17,7.8-23.2,11.8c0.6,4.3,1.2,8.6,1.6,12.8c0.5,4.2,0.7,8.3,0.7,12.3c0,7.1-0.5,14.3-1.6,21.6
				c-1.1,7.3-2.4,14.5-3.9,21.6L3756.2,524h-43.1l27.4-114.1c1.5-7.1,3.2-15.2,5.1-24.1c1.9-9,2.8-17.9,2.8-26.9
				c0-5.9-0.6-11.5-1.9-16.9c-1.2-5.4-3.3-10.1-6.3-14.2c-2.9-4-6.9-7.2-11.8-9.5c-5-2.3-11.3-3.5-19-3.5s-15.2,0.5-22.5,1.4
				s-13.4,2.2-18.3,3.7L3619.4,524h-43.1l55.7-232c13.9-4.3,29.1-7.8,45.7-10.4c16.5-2.6,31.3-3.9,44.3-3.9s24,2.2,32.9,6.7
				c9,4.5,16.1,10.4,21.3,17.9c3.1-2.2,7.3-4.6,12.8-7.4c5.4-2.8,11.6-5.4,18.6-7.9s14.5-4.6,22.7-6.5
				C3838.4,278.5,3846.8,277.6,3855.5,277.6z"/>
			<path class="st0" d="M4034.1,529.9c-25.4,0-45.2-7.5-59.6-22.5c-14.4-15-21.6-35.6-21.6-61.9c0-17.9,2.6-36.8,7.7-56.6
				c5.1-19.8,13.2-38,24.4-54.7c11.1-16.7,25.5-30.5,43.1-41.3s39-16.2,64-16.2c25.4,0,45.2,7.5,59.6,22.5s21.6,35.7,21.6,61.9
				c0,17.9-2.6,36.8-7.7,56.6c-5.1,19.8-13.2,38-24.4,54.7c-11.1,16.7-25.5,30.5-43.1,41.3C4080.5,524.5,4059.2,529.9,4034.1,529.9z
				 M4041.5,493.3c13.9,0,26.4-4,37.3-12.1c11-8,20.3-18.3,27.8-30.9c7.6-12.5,13.4-26.4,17.4-41.5c4-15.2,6-29.8,6-44.1
				c0-15.8-3.4-28.3-10.2-37.6c-6.8-9.3-18.6-13.9-35.3-13.9c-13.9,0-26.4,4-37.3,12.1c-11,8-20.3,18.3-27.8,30.9
				c-7.6,12.5-13.4,26.4-17.4,41.5c-4,15.2-6,29.9-6,44.1c0,15.8,3.4,28.3,10.2,37.6C4013.1,488.7,4024.8,493.3,4041.5,493.3z"/>
			<path class="st0" d="M4268.8,529.9c-13.6,0-25-2-34.1-6s-16.6-9.4-22.3-16.2c-5.7-6.8-9.8-14.8-12.3-24.1
				c-2.5-9.3-3.7-19.2-3.7-29.7c0-8,0.7-16,2.1-23.9s3-15.8,4.9-23.9l29.7-123.4h43.1l-27.4,114.1c-1.6,7.1-3.6,15.5-6,25.1
				c-2.5,9.6-3.7,19.2-3.7,28.8c0,5.6,0.5,10.9,1.6,16s3.1,9.6,6,13.5s6.9,7,11.8,9.3s11.1,3.5,18.6,3.5c13.3,0,25-2.9,35-8.6
				s18.5-12.4,25.3-20.2c0.3-4.9,0.8-10,1.4-15.3s1.7-11,3.2-17.2l35.7-148.9h43.1l-36.7,152.6c-1.6,7.1-2.9,14-3.9,20.6
				c-1.1,6.7-1.6,13.5-1.6,20.6s0.6,14.2,1.9,21.3c1.2,7.1,3.4,14.8,6.5,23.2l-38,5.6c-1.6-3.4-3.1-7.3-4.6-11.6
				c-1.6-4.3-2.8-9-3.7-13.9c-3.4,3.1-7.4,6.3-12.1,9.7c-4.6,3.4-10,6.5-16,9.3s-12.7,5.1-19.9,7
				C4285.5,529,4277.5,529.9,4268.8,529.9z"/>
			<path class="st0" d="M4477.6,493.8c6.5,0,13.1-0.6,19.7-1.9c6.6-1.2,12.5-3.2,17.6-6s9.3-6.6,12.5-11.4s4.9-10.7,4.9-17.9
				c0-4.6-0.8-8.7-2.3-12.3c-1.6-3.6-4-6.9-7.4-10s-7.7-6.1-12.8-9c-5.1-2.9-11.2-6.3-18.3-10c-7.1-3.4-13.6-6.8-19.5-10.2
				c-5.9-3.4-11.1-7.4-15.5-12.1c-4.5-4.6-8-10.1-10.4-16.5c-2.5-6.3-3.7-14-3.7-23c0-23.2,8.3-41.8,25.1-55.9
				c16.7-14.1,41-21.1,72.8-21.1c14.8,0,27.9,1.5,39.2,4.4c11.3,2.9,19.1,5.6,23.4,8.1l-16.2,35.3c-4.3-2.5-11.3-5.1-20.9-7.9
				s-20.3-4.2-32-4.2c-5.9,0-11.8,0.6-17.6,1.9c-5.9,1.2-11.2,3.3-16,6.3c-4.8,2.9-8.7,6.8-11.6,11.6c-2.9,4.8-4.4,10.6-4.4,17.4
				c0,8.4,3.2,15.2,9.7,20.6s16.2,11.1,29.2,16.9c8,3.7,15.2,7.5,21.6,11.4c6.3,3.9,11.8,8.2,16.2,13c4.5,4.8,7.9,10.4,10.2,16.9
				c2.3,6.5,3.5,14.2,3.5,23.2c0,13-2.5,24.4-7.4,34.3c-5,9.9-11.8,18.1-20.6,24.6c-8.8,6.5-19.3,11.4-31.3,14.6
				c-12.1,3.2-25.2,4.9-39.4,4.9c-10.5,0-20-0.7-28.5-2.1c-8.5-1.4-15.9-3-22.3-4.9c-6.3-1.9-11.6-3.8-15.8-5.8
				c-4.2-2-7.4-3.6-9.5-4.9l16.7-35.3c2.2,1.2,5.2,2.8,9,4.6c3.9,1.9,8.5,3.7,13.9,5.6s11.4,3.4,17.9,4.6
				C4463.7,493.1,4470.5,493.8,4477.6,493.8z"/>
		</g>
	</g>
</g>
</svg>
