<?xml version="1.0" encoding="UTF-8" standalone="no"?> <!-- Created with Vectornator for iOS (http://vectornator.io/) --><!DOCTYPE svg PUBLIC "-//W3C//DTD SVG 1.1//EN" "http://www.w3.org/Graphics/SVG/1.1/DTD/svg11.dtd">
<svg height="100%" style="fill-rule:nonzero;clip-rule:evenodd;stroke-linecap:round;stroke-linejoin:round;" xmlns:xlink="http://www.w3.org/1999/xlink" xmlns="http://www.w3.org/2000/svg" xml:space="preserve" width="100%" xmlns:vectornator="http://vectornator.io" version="1.1" viewBox="0 0 800 100">
<metadata>
<vectornator:setting key="DimensionsVisible" value="1"/>
<vectornator:setting key="PencilOnly" value="0"/>
<vectornator:setting key="SnapToPoints" value="0"/>
<vectornator:setting key="OutlineMode" value="0"/>
<vectornator:setting key="CMYKEnabledKey" value="0"/>
<vectornator:setting key="RulersVisible" value="1"/>
<vectornator:setting key="SnapToEdges" value="0"/>
<vectornator:setting key="GuidesVisible" value="1"/>
<vectornator:setting key="DisplayWhiteBackground" value="0"/>
<vectornator:setting key="doHistoryDisabled" value="0"/>
<vectornator:setting key="SnapToGuides" value="1"/>
<vectornator:setting key="TimeLapseWatermarkDisabled" value="0"/>
<vectornator:setting key="Units" value="Pixels"/>
<vectornator:setting key="DynamicGuides" value="0"/>
<vectornator:setting key="IsolateActiveLayer" value="0"/>
<vectornator:setting key="SnapToGrid" value="0"/>
</metadata>
<defs/>
<g id="Livello 1" vectornator:layerName="Livello 1">
<path d="M339.722+29.722C337.17+27.1695+334.333+25.1842+330.93+23.7662C327.527+22.3481+323.556+21.4973+319.586+21.4973C315.332+21.4973+311.645+22.3481+308.241+23.7662C304.838+25.1842+301.718+27.1695+299.166+29.722C296.613+32.2744+294.628+35.3941+293.21+38.7975C291.792+42.2008+291.225+45.8877+291.225+49.5746C291.225+53.2615+291.792+56.9484+293.21+60.3517C294.628+63.755+296.33+66.5911+298.882+68.86L306.823+54.3959L314.764+62.337L323.556+41.3499L319.869+39.6483L324.974+35.9614L330.079+32.2744L330.93+38.5138L331.781+44.7532L328.094+43.0516L316.75+69.9944L308.241+61.7698L302.853+71.9797C304.555+73.3977+306.54+74.2486+308.525+75.0994C311.928+76.5174+315.899+77.3683+319.869+77.3683C324.124+77.3683+327.81+76.5174+331.214+75.0994C338.02+72.2633+343.409+66.8747+345.961+60.0681C347.379+56.6648+347.947+52.9779+347.947+49.291C347.947+45.6041+347.379+41.9171+345.961+38.5138C343.976+35.1105+341.991+32.2744+339.722+29.722Z" fill-rule="evenodd" fill="#4bc1be" opacity="1"/>
<path d="M8.1833+77.3683L46.7541+77.3683L46.7541+68.5764L17.826+68.5764L17.826+22.3481L8.1833+22.3481C8.1833+22.3481+8.1833+77.3683+8.1833+77.3683ZM61.2182+22.3481L61.2182+77.0846L70.8609+77.0846L70.8609+22.3481L61.2182+22.3481ZM112.268+64.6059L95.5348+22.3481L84.7577+22.3481L107.446+77.6519L115.955+77.6519L138.643+22.3481L128.15+22.3481C128.15+22.3481+112.268+64.6059+112.268+64.6059ZM193.096+22.3481L152.54+22.3481L152.54+77.0846L193.663+77.0846L193.663+68.5764L162.183+68.5764L162.183+53.8287L189.693+53.8287L189.693+45.3205L162.183+45.3205L162.183+31.14L193.096+31.14C193.096+31.14+193.096+22.3481+193.096+22.3481ZM430.76+60.3517L401.265+22.3481L392.473+22.3481L392.473+77.0846L401.832+77.0846L401.832+38.2302L432.179+77.3683L440.12+77.3683L440.12+22.3481L430.76+22.3481C430.76+22.3481+430.76+60.3517+430.76+60.3517ZM280.164+68.5764L273.925+62.337C271.656+64.6059+269.103+66.3075+266.835+67.4419C264.566+68.86+261.446+69.4272+258.326+69.4272C255.774+69.4272+253.221+68.86+250.952+68.0092C248.684+66.8747+246.698+65.4567+245.28+63.755C243.579+62.0534+242.444+59.7845+241.593+57.5156C240.743+55.2468+240.175+52.6943+240.175+49.8582C240.175+47.0221+240.743+44.4696+241.593+42.2008C242.444+39.9319+243.862+37.663+245.28+35.9614C246.982+34.2597+248.684+32.8417+250.952+31.7072C253.221+30.5728+255.49+30.2892+258.326+30.2892C261.446+30.2892+264.282+30.8564+266.835+32.2744C269.387+33.4089+271.656+35.1105+273.925+37.0958L279.881+30.0056C278.463+28.8711+277.328+27.7367+275.626+26.6023C274.208+25.4678+272.507+24.617+270.805+23.7662C269.103+22.9154+267.118+22.3481+265.133+22.0645C263.148+21.7809+260.879+21.4973+258.326+21.4973C254.072+21.4973+250.385+22.3481+246.982+23.7662C243.579+25.1842+240.459+27.1695+237.906+29.722C235.354+32.2744+233.369+35.3941+231.951+38.7975C230.533+42.2008+229.965+45.8877+229.965+49.8582C229.965+53.8287+230.533+57.5156+231.951+60.9189C233.369+64.3222+235.354+67.4419+237.906+69.9944C240.459+72.5469+243.295+74.5322+246.698+75.9502C250.102+77.3683+253.789+78.2191+257.759+78.2191C260.312+78.2191+262.58+77.9355+264.849+77.6519C266.835+77.0846+268.82+76.5174+270.805+75.6666C272.507+74.8158+274.208+73.6813+275.91+72.5469C277.328+71.4125+278.746+69.9944+280.164+68.5764ZM364.112+22.3481L364.112+77.0846L373.755+77.0846L373.755+22.3481L364.112+22.3481ZM501.095+63.1878L488.049+22.6317L477.556+22.6317L496.558+77.9355L504.782+77.9355L518.679+38.2302L532.292+77.6519L540.517+77.6519L559.519+22.3481L549.309+22.3481L536.263+62.9042L522.65+22.0645L514.425+22.0645C514.425+22.0645+501.095+63.1878+501.095+63.1878ZM594.686+22.0645L585.895+22.0645L561.788+77.3683L571.714+77.3683L577.386+64.0386L603.195+64.0386L608.867+77.3683L619.077+77.3683C619.077+77.3683+594.686+22.0645+594.686+22.0645ZM599.508+55.5304L580.506+55.5304L589.865+33.6925C589.865+33.6925+599.508+55.5304+599.508+55.5304ZM648.572+31.4236L665.872+31.4236L665.872+22.3481L621.346+22.3481L621.346+31.14L638.646+31.14L638.646+77.0846L648.288+77.0846L648.288+31.4236C648.288+31.4236+648.572+31.4236+648.572+31.4236ZM724.863+68.5764L718.623+62.337C716.355+64.6059+713.802+66.3075+711.533+67.4419C709.264+68.86+706.145+69.4272+703.025+69.4272C700.472+69.4272+697.92+68.86+695.651+68.0092C693.382+66.8747+691.397+65.4567+689.979+63.755C688.277+62.0534+687.143+59.7845+686.292+57.5156C685.441+55.2468+684.874+52.6943+684.874+49.8582C684.874+47.0221+685.441+44.4696+686.292+42.2008C687.143+39.9319+688.561+37.663+689.979+35.9614C691.681+34.2597+693.382+32.8417+695.651+31.7072C697.92+30.5728+700.189+30.2892+703.025+30.2892C706.145+30.2892+708.981+30.8564+711.533+32.2744C714.086+33.4089+716.355+35.1105+718.623+37.0958L724.863+30.0056C723.445+28.8711+722.31+27.7367+720.609+26.6023C719.191+25.4678+717.489+24.617+715.787+23.7662C714.086+22.9154+712.1+22.3481+710.115+22.0645C707.846+21.7809+705.577+21.4973+703.025+21.4973C698.771+21.4973+695.084+22.3481+691.681+23.7662C688.277+25.1842+685.158+27.1695+682.889+30.0056C680.336+32.5581+678.351+35.6778+676.933+39.0811C675.515+42.4844+674.948+46.1713+674.948+50.1418C674.948+54.1123+675.515+57.7992+676.933+61.2025C678.351+64.6059+680.336+67.7256+682.889+70.278C685.441+72.8305+688.277+74.8158+691.681+76.2338C695.084+77.6519+698.771+78.5027+702.741+78.5027C705.294+78.5027+707.563+78.2191+709.832+77.9355C711.817+77.3683+713.802+76.801+715.787+75.9502C717.489+75.0994+719.191+73.9649+720.892+72.8305C722.027+71.4125+723.445+69.9944+724.863+68.5764ZM774.778+54.1123L774.778+77.0846L784.421+77.0846L784.421+22.3481L774.778+22.3481L774.778+45.0368L748.686+45.0368L748.686+22.3481L739.043+22.3481L739.043+77.0846L748.686+77.0846L748.686+54.1123C748.686+54.1123+774.778+54.1123+774.778+54.1123Z" opacity="1" fill="#141c1f"/>
</g>
</svg>
