<svg xmlns="http://www.w3.org/2000/svg" viewBox="0 0 64 64"><defs><style>.cls-1{fill:#fff;}</style></defs><g id="Livello_2" data-name="Livello 2"><g id="Livello_1-2" data-name="Livello 1"><path class="cls-1" d="M27.76,35.46a3.18,3.18,0,1,0-3.18,3.18A3.19,3.19,0,0,0,27.76,35.46Z"/><path class="cls-1" d="M39.27,32.39a3.18,3.18,0,0,0,0,6.36l0,.12h.16a3.24,3.24,0,0,0-.13-6.48Z"/><path class="cls-1" d="M38.6,43A10.45,10.45,0,0,1,32,45a10.36,10.36,0,0,1-6.6-2,.86.86,0,0,0-1.09,0,.87.87,0,0,0-.12,1.21A12.22,12.22,0,0,0,32,46.63a12.18,12.18,0,0,0,7.84-2.44v.12a.88.88,0,0,0,0-1.25A.89.89,0,0,0,38.6,43Z"/><path class="cls-1" d="M32,0A32,32,0,1,0,64,32,32,32,0,0,0,32,0ZM50.57,36.5a10.9,10.9,0,0,1,0,1.4c0,7.12-8.28,12.89-18.5,12.89S13.57,45,13.57,37.9a10.9,10.9,0,0,1,0-1.4,4.35,4.35,0,0,1-1.24-.83,4.63,4.63,0,1,1,6.34-6.75A22.71,22.71,0,0,1,31.05,25l2.34-11v0a1,1,0,0,1,1.18-.75l7.77,1.56a3.17,3.17,0,1,1-.41,1.94l-6.8-1.43-2.06,9.9a22.5,22.5,0,0,1,12.22,3.9,4.65,4.65,0,0,1,7.85,3.18A4.61,4.61,0,0,1,50.57,36.5Z"/></g></g></svg>