<svg xmlns="http://www.w3.org/2000/svg" viewBox="0 0 64 64"><defs><style>.cls-1{fill:#fff;}</style></defs><g id="Livello_2" data-name="Livello 2"><g id="Livello_1-2" data-name="Livello 1"><path class="cls-1" d="M32,0A32,32,0,1,0,64,32,32,32,0,0,0,32,0Zm17,18.27c-.21,1.33-.52,2.64-.8,3.95l-5,23.59c-.48,2.26-1.78,2.76-3.63,1.39l-7.75-5.72c-.18-.14-.37-.27-.59-.42-1.49,1.44-2.92,2.86-4.39,4.22a7.7,7.7,0,0,1-1.38.84l-.17-.18c.1-1.56.19-3.12.29-4.68.08-1.19.13-2.37.26-3.55a1.65,1.65,0,0,1,.45-1c5.17-4.7,10.35-9.36,15.53-14,.21-.19.39-.42.58-.63l0-.21a2.51,2.51,0,0,0-.77,0,4.53,4.53,0,0,0-1,.52q-9.53,6-19,12a1.28,1.28,0,0,1-1.2.16c-2.64-.85-5.3-1.66-7.94-2.49-.61-.19-1.33-.37-1.41-1.12s.59-1.16,1.19-1.41c2.36-1,4.74-1.88,7.12-2.8L46.16,16.35l.32-.12C48.09,15.62,49.31,16.56,49.05,18.27Z"/></g></g></svg>