<svg xmlns="http://www.w3.org/2000/svg" viewBox="0 0 64 64"><defs><style>.cls-1{fill:#fff;}</style></defs><g id="Livello_2" data-name="Livello 2"><g id="Livello_1-2" data-name="Livello 1"><path class="cls-1" d="M32,0A32,32,0,1,0,64,32,32,32,0,0,0,32,0ZM48.17,25.66c0,.34,0,.67,0,1C48.19,37,40.34,48.89,26,48.89a22.08,22.08,0,0,1-12-3.51,16.57,16.57,0,0,0,1.86.11,15.69,15.69,0,0,0,9.7-3.34,7.83,7.83,0,0,1-7.29-5.43,7.88,7.88,0,0,0,1.47.14,7.68,7.68,0,0,0,2.05-.27,7.81,7.81,0,0,1-6.26-7.66v-.1a7.71,7.71,0,0,0,3.54,1,7.8,7.8,0,0,1-2.42-10.42,22.21,22.21,0,0,0,16.1,8.16,8.12,8.12,0,0,1-.2-1.79,7.8,7.8,0,0,1,13.5-5.33,15.91,15.91,0,0,0,5-1.9,7.85,7.85,0,0,1-3.43,4.32,15.65,15.65,0,0,0,4.48-1.23A15.89,15.89,0,0,1,48.17,25.66Z"/></g></g></svg>